<?xml version="1.0" standalone="no"?>
<!DOCTYPE svg PUBLIC "-//W3C//DTD SVG 20010904//EN"
 "http://www.w3.org/TR/2001/REC-SVG-20010904/DTD/svg10.dtd">
<svg version="1.0" xmlns="http://www.w3.org/2000/svg"
 width="400.000000pt" height="400.000000pt" viewBox="0 0 400.000000 400.000000"
 preserveAspectRatio="xMidYMid meet">
<metadata>
Created by potrace 1.11, written by Peter Selinger 2001-2013
</metadata>
<g transform="translate(0.000000,400.000000) scale(0.100000,-0.100000)"
fill="#000000" stroke="none">
<path d="M0 2000 l0 -2000 2000 0 2000 0 0 2000 0 2000 -2000 0 -2000 0 0
-2000z m979 214 c272 -558 497 -1017 500 -1019 3 -2 229 454 502 1013 l496
1017 127 3 126 3 0 -1221 0 -1220 -115 0 -115 0 -2 982 -3 983 -509 -1043
c-280 -573 -512 -1042 -515 -1042 -3 0 -233 469 -511 1042 l-505 1041 -3 -982
-2 -981 -110 0 -110 0 0 1220 0 1220 128 0 127 0 494 -1016z m2119 1001 c178
-42 330 -175 378 -329 25 -81 29 -200 10 -276 -19 -73 -71 -174 -123 -238 -31
-37 -32 -43 -16 -48 104 -32 238 -144 320 -267 143 -215 174 -530 76 -764 -71
-169 -228 -334 -398 -420 -22 -12 -78 -33 -125 -48 -75 -25 -104 -29 -252 -33
l-168 -4 0 1221 0 1221 118 0 c68 0 143 -6 180 -15z"/>
<path d="M2990 2716 l0 -296 28 0 c42 0 126 46 168 92 20 22 48 65 61 95 21
46 24 66 21 126 -5 85 -26 136 -83 192 -46 46 -101 75 -156 82 l-39 6 0 -297z"/>
<path d="M2990 1606 l0 -596 35 0 c118 0 256 63 360 164 121 119 174 235 182
401 6 122 -11 208 -63 306 -92 174 -265 296 -449 315 l-65 7 0 -597z"/>
</g>
</svg>
