<?xml version="1.0" standalone="no"?>
<!DOCTYPE svg PUBLIC "-//W3C//DTD SVG 20010904//EN"
 "http://www.w3.org/TR/2001/REC-SVG-20010904/DTD/svg10.dtd">
<svg version="1.0" xmlns="http://www.w3.org/2000/svg"
 width="384.000000pt" height="384.000000pt" viewBox="0 0 384.000000 384.000000"
 preserveAspectRatio="xMidYMid meet">
<metadata>
Created by potrace 1.16, written by Peter Selinger 2001-2019
</metadata>
<g transform="translate(0.000000,384.000000) scale(0.100000,-0.100000)"
fill="#000000" stroke="none">
<path d="M0 1920 l0 -1920 1920 0 1920 0 0 1920 0 1920 -1920 0 -1920 0 0
-1920z m607 888 c346 -712 550 -1133 678 -1393 l137 -280 123 250 c153 312
674 1381 767 1573 l69 142 119 0 120 0 0 -1170 0 -1170 -110 0 -110 0 0 942
c0 566 -4 938 -9 933 -5 -6 -89 -174 -186 -375 -296 -609 -787 -1615 -791
-1619 -1 -2 -34 61 -72 140 -38 79 -188 387 -332 684 -144 297 -330 680 -412
850 -82 171 -154 314 -159 319 -5 6 -9 -359 -9 -932 l0 -942 -105 0 -105 0 0
1170 0 1170 123 0 122 0 142 -292z m2339 283 c233 -44 396 -219 411 -441 9
-121 -39 -258 -128 -371 -16 -20 -29 -39 -29 -42 0 -3 13 -8 30 -12 83 -18
235 -157 309 -282 111 -188 139 -449 71 -654 -64 -192 -249 -387 -443 -467
-105 -44 -207 -62 -352 -62 l-125 0 0 1170 0 1170 104 0 c57 0 125 -4 152 -9z"/>
<path d="M2870 2604 l0 -287 34 6 c79 13 166 79 209 161 29 55 31 193 4 248
-39 78 -149 158 -219 158 l-28 0 0 -286z"/>
<path d="M2870 1541 l0 -571 43 0 c55 0 136 22 206 56 70 34 195 157 239 236
100 175 92 416 -17 585 -98 152 -245 247 -403 260 l-68 6 0 -572z"/>
</g>
</svg>
